v -0.1875 -0.5 0.1875
v -0.1875 -0.375 0.1875
v -0.1875 -0.375 -0.1875
v -0.0625 -0.375 0.125
v -0.0625 -0.375 -0.125
v 0.1875 -0.375 0.1875
v 0.1875 -0.5 0.1875
v -0.1875 -0.5 -0.1875
v 0.0625 -0.375 -0.125
v 0.1875 -0.5 -0.1875
v 0.0625 -0.375 0.125
v 0.1875 -0.375 -0.1875
v -0.0625 -0.125 0.125
v 0.0625 -0.125 0.125
v -0.0625 -0.125 -0.125
v 0.0625 -0.125 -0.125
v -0.125 -0.125 0.25
v -0.125 0.125 0.25
v -0.125 0.125 -0.25
v 0.125 0.125 0.25
v -0.125 -0.125 -0.25
v 0.125 -0.125 -0.25
v 0.125 -0.125 0.25
v 0.125 0.125 -0.25
vt 0.0 0.1875
vt 0.0625 0.1875
vt 0.0625 0.0
vt 0.0 0.1875
vt 0.0625 0.0
vt 0.0 0.0
vt 0.0625 0.1875
vt 0.125 0.15625
vt 0.125 0.03125
vt 0.0625 0.1875
vt 0.25 0.1875
vt 0.125 0.15625
vt 0.0625 0.1875
vt 0.125 0.03125
vt 0.0625 0.0
vt 0.25 0.1875
vt 0.1875 0.15625
vt 0.125 0.15625
vt 0.0625 0.0
vt 0.125 0.03125
vt 0.1875 0.03125
vt 0.0625 0.0
vt 0.1875 0.03125
vt 0.25 0.0
vt 0.25 0.1875
vt 0.25 0.0
vt 0.1875 0.15625
vt 0.25 0.0
vt 0.1875 0.03125
vt 0.1875 0.15625
vt 0.0 0.1875
vt 0.1875 0.25
vt 0.0 0.25
vt 0.0 0.1875
vt 0.1875 0.1875
vt 0.1875 0.25
vt 0.375 0.375
vt 0.1875 0.375
vt 0.1875 0.1875
vt 0.375 0.375
vt 0.1875 0.1875
vt 0.375 0.1875
vt 0.0 0.25
vt 0.0 0.3125
vt 0.1875 0.25
vt 0.0 0.3125
vt 0.1875 0.3125
vt 0.1875 0.25
vt 0.25 0.1875
vt 0.25 0.0
vt 0.3125 0.1875
vt 0.3125 0.1875
vt 0.25 0.0
vt 0.3125 0.0
vt 0.125 0.4375
vt 0.0 0.3125
vt 0.0 0.4375
vt 0.125 0.4375
vt 0.125 0.3125
vt 0.0 0.3125
vt 0.125 0.4375
vt 0.125 0.3125
vt 0.1875 0.4375
vt 0.125 0.3125
vt 0.1875 0.3125
vt 0.1875 0.4375
vt 0.3125 0.125
vt 0.375 0.0
vt 0.3125 0.0
vt 0.3125 0.125
vt 0.375 0.125
vt 0.375 0.0
vt 0.1875 0.5
vt 0.3125 0.375
vt 0.3125 0.5
vt 0.1875 0.5
vt 0.1875 0.375
vt 0.3125 0.375
vt 0.3125 0.625
vt 0.4375 0.625
vt 0.4375 0.375
vt 0.3125 0.625
vt 0.4375 0.375
vt 0.3125 0.375
vt 0.375 0.25
vt 0.40625 0.1875
vt 0.46875 0.1875
vt 0.375 0.25
vt 0.40625 0.0625
vt 0.40625 0.1875
vt 0.375 0.25
vt 0.46875 0.1875
vt 0.5 0.25
vt 0.375 0.25
vt 0.375 0.0
vt 0.40625 0.0625
vt 0.375 0.0
vt 0.5 0.0
vt 0.40625 0.0625
vt 0.5 0.0
vt 0.46875 0.0625
vt 0.40625 0.0625
vt 0.5 0.25
vt 0.46875 0.1875
vt 0.5 0.0
vt 0.5 0.0
vt 0.46875 0.1875
vt 0.46875 0.0625
vt 0.375 0.25
vt 0.5 0.375
vt 0.375 0.375
vt 0.375 0.25
vt 0.5 0.25
vt 0.5 0.375
vt 0.0 0.6875
vt 0.125 0.6875
vt 0.0 0.4375
vt 0.0 0.4375
vt 0.125 0.6875
vt 0.125 0.4375
vt 0.4375 0.375
vt 0.4375 0.5
vt 0.5625 0.375
vt 0.4375 0.5
vt 0.5625 0.5
vt 0.5625 0.375
vt 0.125 0.75
vt 0.125 0.5
vt 0.25 0.75
vt 0.25 0.75
vt 0.125 0.5
vt 0.25 0.5
f 1/1 2/2 3/3
f 1/4 3/5 8/6
f 2/7 4/8 5/9
f 2/10 6/11 4/12
f 2/13 5/14 3/15
f 6/16 11/17 4/18
f 3/19 5/20 9/21
f 3/22 9/23 12/24
f 6/25 12/26 11/27
f 12/28 9/29 11/30
f 1/31 6/32 2/33
f 1/34 7/35 6/36
f 7/37 1/38 8/39
f 7/40 8/41 10/42
f 8/43 3/44 10/45
f 3/46 12/47 10/48
f 7/49 10/50 6/51
f 6/52 10/53 12/54
f 13/55 5/56 4/57
f 13/58 15/59 5/60
f 13/61 4/62 14/63
f 4/64 11/65 14/66
f 15/67 9/68 5/69
f 15/70 16/71 9/72
f 11/73 16/74 14/75
f 11/76 9/77 16/78
f 17/79 18/80 19/81
f 17/82 19/83 21/84
f 17/85 13/86 14/87
f 17/88 15/89 13/90
f 17/91 14/92 23/93
f 17/94 21/95 15/96
f 21/97 22/98 15/99
f 22/100 16/101 15/102
f 23/103 14/104 22/105
f 22/106 14/107 16/108
f 17/109 20/110 18/111
f 17/112 23/113 20/114
f 18/115 20/116 19/117
f 19/118 20/119 24/120
f 21/121 19/122 22/123
f 19/124 24/125 22/126
f 23/127 22/128 20/129
f 20/130 22/131 24/132
