v 0.5 -0.5 1.5
v 0.5 0.0 1.5
v -0.5 0.0 1.5
v 0.375 0.0 1.375
v -0.375 0.0 1.375
v 0.5 0.0 -0.5
v 0.375 0.0 1.125
v -0.5 -0.5 1.5
v -0.5 -0.5 -0.5
v -0.375 0.0 1.125
v -0.5 0.0 -0.5
v 0.5 -0.5 -0.5
v 0.375 0.125 1.375
v 0.375 0.125 1.125
v -0.375 0.125 1.375
v -0.375 0.125 1.125
vt 0.25 0.0
vt 0.25 0.125
vt 0.0 0.125
vt 0.25 0.0
vt 0.0 0.125
vt 0.0 0.0
vt 0.0 0.625
vt 0.125 0.125
vt 0.125 0.625
vt 0.0 0.625
vt 0.0 0.125
vt 0.125 0.125
vt 0.375 0.625
vt 0.125 0.625
vt 0.125 0.125
vt 0.375 0.625
vt 0.125 0.125
vt 0.375 0.125
vt 0.375 0.5
vt 0.5 0.5
vt 0.375 0.0
vt 0.5 0.5
vt 0.5 0.0
vt 0.375 0.0
vt 0.375 0.5
vt 0.40625 0.90625
vt 0.59375 0.90625
vt 0.625 1.0
vt 0.59375 0.96875
vt 0.40625 0.96875
vt 0.625 1.0
vt 0.625 0.5
vt 0.59375 0.96875
vt 0.625 1.0
vt 0.40625 0.96875
vt 0.375 1.0
vt 0.625 0.5
vt 0.59375 0.90625
vt 0.59375 0.96875
vt 0.625 0.5
vt 0.375 0.5
vt 0.59375 0.90625
vt 0.375 1.0
vt 0.40625 0.96875
vt 0.40625 0.90625
vt 0.375 1.0
vt 0.40625 0.90625
vt 0.375 0.5
vt 0.75 0.0
vt 0.5 0.0
vt 0.75 0.125
vt 0.75 0.125
vt 0.5 0.0
vt 0.5 0.125
vt 0.28125 0.0625
vt 0.25 0.0625
vt 0.28125 0.0
vt 0.28125 0.0
vt 0.25 0.0625
vt 0.25 0.0
vt 0.6875 0.15625
vt 0.5 0.125
vt 0.6875 0.125
vt 0.6875 0.15625
vt 0.5 0.15625
vt 0.5 0.125
vt 0.6875 0.21875
vt 0.6875 0.15625
vt 0.5 0.21875
vt 0.5 0.21875
vt 0.6875 0.15625
vt 0.5 0.15625
vt 0.6875 0.25
vt 0.6875 0.21875
vt 0.5 0.25
vt 0.5 0.25
vt 0.6875 0.21875
vt 0.5 0.21875
vt 0.28125 0.125
vt 0.25 0.0625
vt 0.25 0.125
vt 0.28125 0.125
vt 0.28125 0.0625
vt 0.25 0.0625
f 1/1 2/2 3/3
f 1/4 3/5 8/6
f 1/7 6/8 2/9
f 1/10 12/11 6/12
f 1/13 8/14 9/15
f 1/16 9/17 12/18
f 8/19 3/20 9/21
f 3/22 11/23 9/24
f 11/25 10/26 7/27
f 2/28 4/29 5/30
f 2/31 6/32 4/33
f 2/34 5/35 3/36
f 6/37 7/38 4/39
f 6/40 11/41 7/42
f 3/43 5/44 10/45
f 3/46 10/47 11/48
f 12/49 9/50 6/51
f 6/52 9/53 11/54
f 13/55 4/56 14/57
f 14/58 4/59 7/60
f 13/61 5/62 4/63
f 13/64 15/65 5/66
f 13/67 14/68 15/69
f 15/70 14/71 16/72
f 14/73 7/74 16/75
f 16/76 7/77 10/78
f 15/79 10/80 5/81
f 15/82 16/83 10/84
