v -0.375 -0.5 0.375
v -0.375 0.25 0.375
v -0.375 0.25 -0.375
v -0.125 0.25 0.125
v 0.375 0.25 0.375
v 0.0625 0.25 0.0625
v -0.0625 0.25 -0.0625
v -0.0625 0.25 0.0625
v -0.375 -0.5 -0.375
v -0.1875 -0.25 -0.375
v -0.1875 -0.375 -0.375
v 0.375 -0.5 -0.375
v 0.1875 -0.375 -0.375
v -0.125 0.25 -0.125
v 0.375 0.25 -0.375
v 0.125 0.25 -0.125
v 0.375 -0.5 0.375
v 0.125 0.25 0.125
v 0.1875 -0.25 -0.375
v 0.0625 0.25 -0.0625
v -0.1875 -0.375 -0.3125
v -0.1875 -0.25 -0.3125
v 0.1875 -0.25 -0.3125
v 0.1875 -0.375 -0.3125
v -0.125 0.375 0.125
v -0.125 0.375 -0.125
v -0.0625 0.375 0.0625
v 0.125 0.375 0.125
v -0.0625 0.375 -0.0625
v 0.0625 0.375 -0.0625
v 0.0625 0.375 0.0625
v 0.125 0.375 -0.125
vt 0.0 0.1875
vt 0.1875 0.1875
vt 0.1875 0.0
vt 0.0 0.1875
vt 0.1875 0.0
vt 0.0 0.0
vt 0.0 0.375
vt 0.0625 0.3125
vt 0.0 0.1875
vt 0.0 0.375
vt 0.1875 0.375
vt 0.0625 0.3125
vt 0.0 0.1875
vt 0.0625 0.3125
vt 0.0625 0.25
vt 0.1875 0.375
vt 0.125 0.3125
vt 0.0625 0.3125
vt 0.0 0.1875
vt 0.0625 0.25
vt 0.125 0.25
vt 0.0 0.1875
vt 0.125 0.25
vt 0.1875 0.1875
vt 0.1875 0.375
vt 0.125 0.25
vt 0.125 0.3125
vt 0.1875 0.375
vt 0.1875 0.1875
vt 0.125 0.25
vt 0.1875 0.0
vt 0.375 0.1875
vt 0.1875 0.1875
vt 0.1875 0.0
vt 0.375 0.0
vt 0.375 0.1875
vt 0.21875 0.21875
vt 0.1875 0.1875
vt 0.1875 0.21875
vt 0.1875 0.1875
vt 0.21875 0.21875
vt 0.21875 0.1875
vt 0.1875 0.21875
vt 0.234375 0.28125
vt 0.234375 0.25
vt 0.1875 0.21875
vt 0.1875 0.40625
vt 0.234375 0.28125
vt 0.1875 0.21875
vt 0.234375 0.25
vt 0.328125 0.25
vt 0.234375 0.28125
vt 0.1875 0.40625
vt 0.375 0.40625
vt 0.1875 0.21875
vt 0.328125 0.25
vt 0.375 0.21875
vt 0.234375 0.28125
vt 0.375 0.40625
vt 0.328125 0.28125
vt 0.328125 0.25
vt 0.328125 0.28125
vt 0.375 0.21875
vt 0.375 0.21875
vt 0.328125 0.28125
vt 0.375 0.40625
vt 0.0 0.5625
vt 0.0 0.375
vt 0.1875 0.375
vt 0.0 0.5625
vt 0.1875 0.375
vt 0.1875 0.5625
vt 0.375 0.1875
vt 0.375 0.0
vt 0.5625 0.1875
vt 0.5625 0.1875
vt 0.375 0.0
vt 0.5625 0.0
vt 0.21875 0.203125
vt 0.21875 0.1875
vt 0.25 0.203125
vt 0.21875 0.1875
vt 0.25 0.1875
vt 0.25 0.203125
vt 0.25 0.1875
vt 0.25 0.21875
vt 0.34375 0.21875
vt 0.25 0.1875
vt 0.34375 0.21875
vt 0.34375 0.1875
vt 0.34375 0.203125
vt 0.4375 0.1875
vt 0.34375 0.1875
vt 0.34375 0.203125
vt 0.4375 0.203125
vt 0.4375 0.1875
vt 0.34375 0.21875
vt 0.34375 0.203125
vt 0.4375 0.21875
vt 0.34375 0.203125
vt 0.4375 0.203125
vt 0.4375 0.21875
vt 0.21875 0.21875
vt 0.25 0.21875
vt 0.25 0.203125
vt 0.21875 0.21875
vt 0.25 0.203125
vt 0.21875 0.203125
vt 0.40625 0.28125
vt 0.40625 0.21875
vt 0.375 0.28125
vt 0.40625 0.21875
vt 0.375 0.21875
vt 0.375 0.28125
vt 0.375 0.34375
vt 0.390625 0.328125
vt 0.375 0.28125
vt 0.375 0.34375
vt 0.4375 0.34375
vt 0.390625 0.328125
vt 0.390625 0.328125
vt 0.390625 0.296875
vt 0.375 0.28125
vt 0.390625 0.328125
vt 0.4375 0.34375
vt 0.421875 0.328125
vt 0.375 0.28125
vt 0.390625 0.296875
vt 0.421875 0.296875
vt 0.375 0.28125
vt 0.421875 0.296875
vt 0.4375 0.28125
vt 0.4375 0.34375
vt 0.421875 0.296875
vt 0.421875 0.328125
vt 0.4375 0.34375
vt 0.4375 0.28125
vt 0.421875 0.296875
vt 0.375 0.375
vt 0.375 0.34375
vt 0.4375 0.375
vt 0.4375 0.375
vt 0.375 0.34375
vt 0.4375 0.34375
vt 0.375 0.40625
vt 0.4375 0.375
vt 0.375 0.375
vt 0.375 0.40625
vt 0.4375 0.40625
vt 0.4375 0.375
vt 0.21875 0.46875
vt 0.1875 0.46875
vt 0.1875 0.40625
vt 0.21875 0.46875
vt 0.1875 0.40625
vt 0.21875 0.40625
vt 0.25 0.4375
vt 0.21875 0.4375
vt 0.25 0.40625
vt 0.25 0.40625
vt 0.21875 0.4375
vt 0.21875 0.40625
vt 0.25 0.4375
vt 0.28125 0.40625
vt 0.25 0.40625
vt 0.25 0.4375
vt 0.28125 0.4375
vt 0.28125 0.40625
vt 0.28125 0.4375
vt 0.28125 0.40625
vt 0.3125 0.4375
vt 0.3125 0.4375
vt 0.28125 0.40625
vt 0.3125 0.40625
vt 0.34375 0.4375
vt 0.3125 0.40625
vt 0.3125 0.4375
vt 0.34375 0.4375
vt 0.34375 0.40625
vt 0.3125 0.40625
f 1/1 2/2 3/3
f 1/4 3/5 9/6
f 2/7 4/8 3/9
f 2/10 5/11 4/12
f 3/13 4/14 14/15
f 5/16 18/17 4/18
f 3/19 14/20 16/21
f 3/22 16/23 15/24
f 5/25 16/26 18/27
f 5/28 15/29 16/30
f 1/31 5/32 2/33
f 1/34 17/35 5/36
f 6/37 7/38 8/39
f 7/40 6/41 20/42
f 9/43 10/44 11/45
f 9/46 3/47 10/48
f 9/49 11/50 13/51
f 10/52 3/53 15/54
f 9/55 13/56 12/57
f 10/58 15/59 19/60
f 13/61 19/62 12/63
f 12/64 19/65 15/66
f 1/67 9/68 12/69
f 1/70 12/71 17/72
f 17/73 12/74 5/75
f 5/76 12/77 15/78
f 21/79 11/80 22/81
f 11/82 10/83 22/84
f 21/85 22/86 23/87
f 21/88 23/89 24/90
f 21/91 13/92 11/93
f 21/94 24/95 13/96
f 22/97 10/98 23/99
f 10/100 19/101 23/102
f 24/103 23/104 19/105
f 24/106 19/107 13/108
f 25/109 26/110 4/111
f 26/112 14/113 4/114
f 25/115 27/116 26/117
f 25/118 28/119 27/120
f 27/121 29/122 26/123
f 27/124 28/125 31/126
f 26/127 29/128 30/129
f 26/130 30/131 32/132
f 28/133 30/134 31/135
f 28/136 32/137 30/138
f 25/139 4/140 28/141
f 28/142 4/143 18/144
f 26/145 16/146 14/147
f 26/148 32/149 16/150
f 28/151 18/152 16/153
f 28/154 16/155 32/156
f 27/157 8/158 29/159
f 29/160 8/161 7/162
f 27/163 6/164 8/165
f 27/166 31/167 6/168
f 29/169 7/170 30/171
f 30/172 7/173 20/174
f 31/175 20/176 6/177
f 31/178 30/179 20/180
