v -0.375 -0.5 0.375
v -0.375 0.25 0.375
v -0.375 0.25 -0.375
v -0.1875 0.25 0.1875
v -0.1875 0.25 -0.1875
v 0.375 0.25 0.375
v 0.125 0.25 0.125
v -0.125 0.25 -0.125
v -0.125 0.25 0.125
v -0.375 -0.5 -0.375
v -0.1875 -0.25 -0.375
v -0.1875 -0.375 -0.375
v -0.1875 -0.1875 -0.375
v 0.375 -0.5 -0.375
v 0.1875 -0.375 -0.375
v 0.1875 -0.1875 -0.375
v -0.1875 0.0625 -0.375
v 0.375 0.25 -0.375
v 0.1875 0.25 -0.1875
v 0.375 -0.5 0.375
v 0.1875 0.25 0.1875
v 0.1875 -0.25 -0.375
v 0.125 0.25 -0.125
v 0.1875 0.0625 -0.375
v -0.1875 -0.375 -0.3125
v -0.1875 -0.25 -0.3125
v 0.1875 -0.25 -0.3125
v 0.1875 -0.375 -0.3125
v -0.1875 -0.1875 -0.3125
v -0.1875 0.0625 -0.3125
v 0.1875 0.0625 -0.3125
v 0.1875 -0.1875 -0.3125
v -0.1875 0.4375 0.1875
v -0.125 0.4375 0.125
v -0.125 0.4375 -0.125
v 0.1875 0.4375 0.1875
v 0.125 0.4375 0.125
v -0.1875 0.4375 -0.1875
v 0.1875 0.4375 -0.1875
v 0.125 0.4375 -0.125
vt 0.0 0.1875
vt 0.1875 0.1875
vt 0.1875 0.0
vt 0.0 0.1875
vt 0.1875 0.0
vt 0.0 0.0
vt 0.0 0.375
vt 0.046875 0.328125
vt 0.046875 0.234375
vt 0.0 0.375
vt 0.1875 0.375
vt 0.046875 0.328125
vt 0.0 0.375
vt 0.046875 0.234375
vt 0.0 0.1875
vt 0.1875 0.375
vt 0.140625 0.328125
vt 0.046875 0.328125
vt 0.0 0.1875
vt 0.046875 0.234375
vt 0.140625 0.234375
vt 0.0 0.1875
vt 0.140625 0.234375
vt 0.1875 0.1875
vt 0.1875 0.375
vt 0.1875 0.1875
vt 0.140625 0.328125
vt 0.1875 0.1875
vt 0.140625 0.234375
vt 0.140625 0.328125
vt 0.1875 0.0
vt 0.375 0.1875
vt 0.1875 0.1875
vt 0.1875 0.0
vt 0.375 0.0
vt 0.375 0.1875
vt 0.25 0.25
vt 0.1875 0.1875
vt 0.1875 0.25
vt 0.25 0.25
vt 0.25 0.1875
vt 0.1875 0.1875
vt 0.1875 0.25
vt 0.234375 0.3125
vt 0.234375 0.28125
vt 0.1875 0.25
vt 0.234375 0.328125
vt 0.234375 0.3125
vt 0.1875 0.25
vt 0.234375 0.28125
vt 0.328125 0.28125
vt 0.1875 0.25
vt 0.1875 0.4375
vt 0.234375 0.328125
vt 0.234375 0.3125
vt 0.234375 0.328125
vt 0.328125 0.328125
vt 0.234375 0.328125
vt 0.1875 0.4375
vt 0.234375 0.390625
vt 0.1875 0.25
vt 0.328125 0.28125
vt 0.375 0.25
vt 0.234375 0.3125
vt 0.328125 0.328125
vt 0.328125 0.3125
vt 0.1875 0.4375
vt 0.375 0.4375
vt 0.234375 0.390625
vt 0.234375 0.390625
vt 0.375 0.4375
vt 0.328125 0.390625
vt 0.328125 0.28125
vt 0.328125 0.3125
vt 0.375 0.25
vt 0.375 0.25
vt 0.328125 0.3125
vt 0.328125 0.328125
vt 0.375 0.25
vt 0.328125 0.328125
vt 0.375 0.4375
vt 0.328125 0.328125
vt 0.328125 0.390625
vt 0.375 0.4375
vt 0.0 0.5625
vt 0.0 0.375
vt 0.1875 0.375
vt 0.0 0.5625
vt 0.1875 0.375
vt 0.1875 0.5625
vt 0.375 0.1875
vt 0.375 0.0
vt 0.5625 0.1875
vt 0.5625 0.1875
vt 0.375 0.0
vt 0.5625 0.0
vt 0.25 0.203125
vt 0.25 0.1875
vt 0.28125 0.203125
vt 0.25 0.1875
vt 0.28125 0.1875
vt 0.28125 0.203125
vt 0.25 0.203125
vt 0.25 0.234375
vt 0.34375 0.234375
vt 0.25 0.203125
vt 0.34375 0.234375
vt 0.34375 0.203125
vt 0.25 0.25
vt 0.34375 0.234375
vt 0.25 0.234375
vt 0.25 0.25
vt 0.34375 0.25
vt 0.34375 0.234375
vt 0.28125 0.203125
vt 0.28125 0.1875
vt 0.375 0.203125
vt 0.28125 0.1875
vt 0.375 0.1875
vt 0.375 0.203125
vt 0.34375 0.21875
vt 0.375 0.203125
vt 0.34375 0.203125
vt 0.34375 0.21875
vt 0.375 0.21875
vt 0.375 0.203125
vt 0.34375 0.234375
vt 0.34375 0.21875
vt 0.40625 0.234375
vt 0.34375 0.21875
vt 0.40625 0.21875
vt 0.40625 0.234375
vt 0.34375 0.25
vt 0.4375 0.234375
vt 0.34375 0.234375
vt 0.34375 0.25
vt 0.4375 0.25
vt 0.4375 0.234375
vt 0.375 0.25
vt 0.375 0.3125
vt 0.46875 0.3125
vt 0.375 0.25
vt 0.46875 0.3125
vt 0.46875 0.25
vt 0.375 0.203125
vt 0.375 0.1875
vt 0.46875 0.203125
vt 0.375 0.1875
vt 0.46875 0.1875
vt 0.46875 0.203125
vt 0.375 0.21875
vt 0.4375 0.203125
vt 0.375 0.203125
vt 0.375 0.21875
vt 0.4375 0.21875
vt 0.4375 0.203125
vt 0.421875 0.40625
vt 0.375 0.3125
vt 0.375 0.40625
vt 0.421875 0.40625
vt 0.421875 0.3125
vt 0.375 0.3125
vt 0.375 0.5
vt 0.390625 0.484375
vt 0.390625 0.421875
vt 0.375 0.5
vt 0.453125 0.484375
vt 0.390625 0.484375
vt 0.375 0.5
vt 0.390625 0.421875
vt 0.375 0.40625
vt 0.375 0.5
vt 0.46875 0.5
vt 0.453125 0.484375
vt 0.375 0.40625
vt 0.390625 0.421875
vt 0.46875 0.40625
vt 0.390625 0.421875
vt 0.453125 0.421875
vt 0.46875 0.40625
vt 0.453125 0.484375
vt 0.46875 0.5
vt 0.46875 0.40625
vt 0.453125 0.484375
vt 0.46875 0.40625
vt 0.453125 0.421875
vt 0.421875 0.359375
vt 0.421875 0.3125
vt 0.515625 0.359375
vt 0.515625 0.359375
vt 0.421875 0.3125
vt 0.515625 0.3125
vt 0.421875 0.40625
vt 0.515625 0.359375
vt 0.421875 0.359375
vt 0.421875 0.40625
vt 0.515625 0.40625
vt 0.515625 0.359375
vt 0.234375 0.53125
vt 0.1875 0.53125
vt 0.234375 0.4375
vt 0.234375 0.4375
vt 0.1875 0.53125
vt 0.1875 0.4375
vt 0.28125 0.5
vt 0.234375 0.5
vt 0.28125 0.4375
vt 0.28125 0.4375
vt 0.234375 0.5
vt 0.234375 0.4375
vt 0.28125 0.484375
vt 0.34375 0.4375
vt 0.28125 0.4375
vt 0.28125 0.484375
vt 0.34375 0.484375
vt 0.34375 0.4375
vt 0.4375 0.25
vt 0.4375 0.203125
vt 0.5 0.25
vt 0.5 0.25
vt 0.4375 0.203125
vt 0.5 0.203125
vt 0.515625 0.3125
vt 0.46875 0.25
vt 0.46875 0.3125
vt 0.515625 0.3125
vt 0.515625 0.25
vt 0.46875 0.25
f 1/1 2/2 3/3
f 1/4 3/5 10/6
f 2/7 4/8 5/9
f 2/10 6/11 4/12
f 2/13 5/14 3/15
f 6/16 21/17 4/18
f 3/19 5/20 19/21
f 3/22 19/23 18/24
f 6/25 18/26 21/27
f 18/28 19/29 21/30
f 1/31 6/32 2/33
f 1/34 20/35 6/36
f 7/37 8/38 9/39
f 7/40 23/41 8/42
f 10/43 11/44 12/45
f 10/46 13/47 11/48
f 10/49 12/50 15/51
f 10/52 3/53 13/54
f 11/55 13/56 16/57
f 13/58 3/59 17/60
f 10/61 15/62 14/63
f 11/64 16/65 22/66
f 3/67 18/68 17/69
f 17/70 18/71 24/72
f 15/73 22/74 14/75
f 14/76 22/77 16/78
f 14/79 16/80 18/81
f 16/82 24/83 18/84
f 1/85 10/86 14/87
f 1/88 14/89 20/90
f 20/91 14/92 6/93
f 6/94 14/95 18/96
f 25/97 12/98 26/99
f 12/100 11/101 26/102
f 25/103 26/104 27/105
f 25/106 27/107 28/108
f 25/109 15/110 12/111
f 25/112 28/113 15/114
f 26/115 11/116 27/117
f 11/118 22/119 27/120
f 28/121 22/122 15/123
f 28/124 27/125 22/126
f 29/127 13/128 30/129
f 13/130 17/131 30/132
f 29/133 16/134 13/135
f 29/136 32/137 16/138
f 29/139 30/140 31/141
f 29/142 31/143 32/144
f 30/145 17/146 31/147
f 17/148 24/149 31/150
f 32/151 24/152 16/153
f 32/154 31/155 24/156
f 33/157 5/158 4/159
f 33/160 38/161 5/162
f 33/163 34/164 35/165
f 33/166 37/167 34/168
f 33/169 35/170 38/171
f 33/172 36/173 37/174
f 38/175 35/176 39/177
f 35/178 40/179 39/180
f 37/181 36/182 39/183
f 37/184 39/185 40/186
f 33/187 4/188 36/189
f 36/190 4/191 21/192
f 38/193 19/194 5/195
f 38/196 39/197 19/198
f 36/199 21/200 39/201
f 39/202 21/203 19/204
f 34/205 9/206 35/207
f 35/208 9/209 8/210
f 34/211 7/212 9/213
f 34/214 37/215 7/216
f 35/217 8/218 40/219
f 40/220 8/221 23/222
f 37/223 23/224 7/225
f 37/226 40/227 23/228
