v -0.375 -0.5 0.375
v -0.375 -0.1875 0.375
v -0.375 -0.1875 -0.375
v 0.375 -0.5 0.375
v -0.375 -0.0625 0.375
v -0.375 0.25 0.375
v -0.375 0.25 -0.375
v -0.1875 0.25 0.1875
v -0.1875 0.25 -0.1875
v 0.375 -0.0625 0.375
v 0.375 0.25 0.375
v -0.375 -0.5 -0.375
v 0.375 -0.5 -0.375
v 0.375 -0.1875 -0.375
v -0.375 -0.0625 -0.375
v 0.375 0.25 -0.375
v 0.1875 0.25 -0.1875
v 0.375 -0.1875 0.375
v 0.1875 0.25 0.1875
v 0.375 -0.0625 -0.375
v -0.3125 -0.1875 0.3125
v -0.3125 -0.1875 -0.3125
v -0.3125 -0.0625 0.3125
v 0.3125 -0.0625 0.3125
v -0.3125 -0.0625 -0.3125
v 0.3125 -0.1875 -0.3125
v 0.3125 -0.1875 0.3125
v 0.3125 -0.0625 -0.3125
v -0.1875 0.375 0.1875
v -0.125 0.375 0.125
v -0.125 0.375 0.0625
v -0.0625 0.375 0.125
v -0.1875 0.375 -0.1875
v 0.1875 0.375 0.1875
v 0.0625 0.375 0.125
v -0.0625 0.375 0.0625
v 0.0625 0.375 0.0625
v 0.0625 0.375 -0.0625
v 0.0625 0.375 -0.125
v 0.125 0.375 0.125
v 0.125 0.375 0.0625
v 0.125 0.375 -0.0625
v 0.125 0.375 -0.125
v 0.1875 0.375 -0.1875
v 0.0625 0.5 -0.0625
v 0.0625 0.5 -0.125
v 0.125 0.5 -0.0625
v 0.125 0.5 -0.125
v -0.125 0.5 0.125
v -0.125 0.5 0.0625
v -0.0625 0.5 0.125
v -0.0625 0.5 0.0625
v 0.0625 0.5 0.125
v 0.0625 0.5 0.0625
v 0.125 0.5 0.125
v 0.125 0.5 0.0625
vt 0.0 0.1875
vt 0.078125 0.1875
vt 0.078125 0.0
vt 0.0 0.1875
vt 0.078125 0.0
vt 0.0 0.0
vt 0.078125 0.0
vt 0.265625 0.0
vt 0.078125 0.078125
vt 0.078125 0.078125
vt 0.265625 0.0
vt 0.265625 0.078125
vt 0.078125 0.265625
vt 0.15625 0.265625
vt 0.15625 0.078125
vt 0.078125 0.265625
vt 0.15625 0.078125
vt 0.078125 0.078125
vt 0.15625 0.265625
vt 0.203125 0.21875
vt 0.203125 0.125
vt 0.15625 0.265625
vt 0.34375 0.265625
vt 0.203125 0.21875
vt 0.15625 0.265625
vt 0.203125 0.125
vt 0.15625 0.078125
vt 0.34375 0.265625
vt 0.296875 0.21875
vt 0.203125 0.21875
vt 0.15625 0.078125
vt 0.203125 0.125
vt 0.296875 0.125
vt 0.15625 0.078125
vt 0.296875 0.125
vt 0.34375 0.078125
vt 0.34375 0.265625
vt 0.34375 0.078125
vt 0.296875 0.21875
vt 0.34375 0.078125
vt 0.296875 0.125
vt 0.296875 0.21875
vt 0.0 0.265625
vt 0.1875 0.265625
vt 0.0 0.34375
vt 0.0 0.34375
vt 0.1875 0.265625
vt 0.1875 0.34375
vt 0.1875 0.453125
vt 0.1875 0.265625
vt 0.375 0.265625
vt 0.1875 0.453125
vt 0.375 0.265625
vt 0.375 0.453125
vt 0.265625 0.0
vt 0.265625 0.078125
vt 0.453125 0.078125
vt 0.265625 0.0
vt 0.453125 0.078125
vt 0.453125 0.0
vt 0.0 0.34375
vt 0.0 0.421875
vt 0.1875 0.421875
vt 0.0 0.34375
vt 0.1875 0.421875
vt 0.1875 0.34375
vt 0.34375 0.265625
vt 0.34375 0.078125
vt 0.421875 0.265625
vt 0.421875 0.265625
vt 0.34375 0.078125
vt 0.421875 0.078125
vt 0.375 0.453125
vt 0.375 0.265625
vt 0.453125 0.453125
vt 0.453125 0.453125
vt 0.375 0.265625
vt 0.453125 0.265625
vt 0.0 0.609375
vt 0.015625 0.59375
vt 0.015625 0.4375
vt 0.0 0.609375
vt 0.1875 0.609375
vt 0.015625 0.59375
vt 0.0 0.609375
vt 0.015625 0.4375
vt 0.0 0.421875
vt 0.1875 0.609375
vt 0.171875 0.59375
vt 0.015625 0.59375
vt 0.0 0.421875
vt 0.015625 0.4375
vt 0.171875 0.4375
vt 0.0 0.421875
vt 0.171875 0.4375
vt 0.1875 0.421875
vt 0.1875 0.609375
vt 0.1875 0.421875
vt 0.171875 0.59375
vt 0.1875 0.421875
vt 0.171875 0.4375
vt 0.171875 0.59375
vt 0.421875 0.265625
vt 0.421875 0.078125
vt 0.4375 0.25
vt 0.421875 0.265625
vt 0.4375 0.25
vt 0.59375 0.25
vt 0.421875 0.078125
vt 0.4375 0.09375
vt 0.4375 0.25
vt 0.421875 0.265625
vt 0.59375 0.25
vt 0.609375 0.265625
vt 0.421875 0.078125
vt 0.609375 0.078125
vt 0.4375 0.09375
vt 0.609375 0.078125
vt 0.59375 0.09375
vt 0.4375 0.09375
vt 0.609375 0.265625
vt 0.59375 0.25
vt 0.59375 0.09375
vt 0.609375 0.265625
vt 0.59375 0.09375
vt 0.609375 0.078125
vt 0.1875 0.453125
vt 0.1875 0.609375
vt 0.21875 0.609375
vt 0.21875 0.609375
vt 0.21875 0.453125
vt 0.1875 0.453125
vt 0.375 0.484375
vt 0.21875 0.484375
vt 0.21875 0.453125
vt 0.21875 0.453125
vt 0.375 0.453125
vt 0.375 0.484375
vt 0.375 0.484375
vt 0.53125 0.453125
vt 0.375 0.453125
vt 0.375 0.484375
vt 0.53125 0.484375
vt 0.53125 0.453125
vt 0.453125 0.421875
vt 0.484375 0.265625
vt 0.484375 0.421875
vt 0.453125 0.421875
vt 0.453125 0.265625
vt 0.484375 0.265625
vt 0.25 0.578125
vt 0.25 0.484375
vt 0.21875 0.578125
vt 0.25 0.484375
vt 0.21875 0.484375
vt 0.21875 0.578125
vt 0.453125 0.03125
vt 0.453125 0.0
vt 0.546875 0.03125
vt 0.546875 0.03125
vt 0.453125 0.0
vt 0.546875 0.0
vt 0.453125 0.0625
vt 0.546875 0.03125
vt 0.453125 0.03125
vt 0.453125 0.0625
vt 0.546875 0.0625
vt 0.546875 0.03125
vt 0.3125 0.546875
vt 0.328125 0.546875
vt 0.328125 0.515625
vt 0.28125 0.5625
vt 0.3125 0.5625
vt 0.28125 0.546875
vt 0.25 0.578125
vt 0.265625 0.5625
vt 0.265625 0.546875
vt 0.25 0.578125
vt 0.28125 0.5625
vt 0.265625 0.5625
vt 0.25 0.578125
vt 0.265625 0.546875
vt 0.25 0.484375
vt 0.25 0.578125
vt 0.34375 0.578125
vt 0.28125 0.5625
vt 0.25 0.484375
vt 0.265625 0.546875
vt 0.28125 0.546875
vt 0.34375 0.578125
vt 0.3125 0.5625
vt 0.28125 0.5625
vt 0.28125 0.546875
vt 0.3125 0.5625
vt 0.3125 0.546875
vt 0.25 0.484375
vt 0.28125 0.546875
vt 0.3125 0.546875
vt 0.25 0.484375
vt 0.3125 0.546875
vt 0.3125 0.515625
vt 0.25 0.484375
vt 0.3125 0.515625
vt 0.3125 0.5
vt 0.3125 0.546875
vt 0.328125 0.515625
vt 0.3125 0.515625
vt 0.25 0.484375
vt 0.3125 0.5
vt 0.328125 0.5
vt 0.34375 0.578125
vt 0.328125 0.5625
vt 0.3125 0.5625
vt 0.34375 0.578125
vt 0.328125 0.546875
vt 0.328125 0.5625
vt 0.34375 0.578125
vt 0.328125 0.515625
vt 0.328125 0.546875
vt 0.34375 0.578125
vt 0.34375 0.484375
vt 0.328125 0.515625
vt 0.25 0.484375
vt 0.328125 0.5
vt 0.34375 0.484375
vt 0.34375 0.484375
vt 0.328125 0.5
vt 0.328125 0.515625
vt 0.375 0.578125
vt 0.34375 0.578125
vt 0.34375 0.484375
vt 0.375 0.578125
vt 0.34375 0.484375
vt 0.375 0.484375
vt 0.0 0.21875
vt 0.0 0.1875
vt 0.015625 0.1875
vt 0.0 0.21875
vt 0.015625 0.1875
vt 0.015625 0.21875
vt 0.046875 0.203125
vt 0.046875 0.1875
vt 0.015625 0.203125
vt 0.046875 0.1875
vt 0.015625 0.1875
vt 0.015625 0.203125
vt 0.046875 0.203125
vt 0.0625 0.203125
vt 0.046875 0.1875
vt 0.046875 0.1875
vt 0.0625 0.203125
vt 0.0625 0.1875
vt 0.0625 0.21875
vt 0.078125 0.21875
vt 0.0625 0.1875
vt 0.078125 0.21875
vt 0.078125 0.1875
vt 0.0625 0.1875
vt 0.046875 0.21875
vt 0.015625 0.21875
vt 0.015625 0.203125
vt 0.046875 0.21875
vt 0.015625 0.203125
vt 0.046875 0.203125
vt 0.046875 0.234375
vt 0.046875 0.203125
vt 0.0625 0.203125
vt 0.046875 0.234375
vt 0.0625 0.203125
vt 0.0625 0.234375
vt 0.03125 0.234375
vt 0.03125 0.21875
vt 0.0 0.234375
vt 0.03125 0.21875
vt 0.0 0.21875
vt 0.0 0.234375
vt 0.03125 0.234375
vt 0.046875 0.234375
vt 0.03125 0.21875
vt 0.03125 0.21875
vt 0.046875 0.234375
vt 0.046875 0.21875
vt 0.0625 0.25
vt 0.078125 0.25
vt 0.0625 0.21875
vt 0.078125 0.25
vt 0.078125 0.21875
vt 0.0625 0.21875
vt 0.03125 0.25
vt 0.0 0.25
vt 0.0 0.234375
vt 0.03125 0.25
vt 0.0 0.234375
vt 0.03125 0.234375
vt 0.03125 0.265625
vt 0.03125 0.234375
vt 0.046875 0.234375
vt 0.03125 0.265625
vt 0.046875 0.234375
vt 0.046875 0.265625
vt 0.03125 0.265625
vt 0.03125 0.25
vt 0.0 0.265625
vt 0.03125 0.25
vt 0.0 0.25
vt 0.0 0.265625
vt 0.046875 0.25
vt 0.0625 0.25
vt 0.046875 0.234375
vt 0.046875 0.234375
vt 0.0625 0.25
vt 0.0625 0.234375
vt 0.453125 0.453125
vt 0.46875 0.453125
vt 0.453125 0.421875
vt 0.46875 0.453125
vt 0.46875 0.421875
vt 0.453125 0.421875
vt 0.078125 0.265625
vt 0.046875 0.265625
vt 0.046875 0.25
vt 0.078125 0.265625
vt 0.046875 0.25
vt 0.078125 0.25
f 1/1 2/2 3/3
f 1/4 3/5 12/6
f 1/7 4/8 2/9
f 2/10 4/11 18/12
f 5/13 6/14 7/15
f 5/16 7/17 15/18
f 6/19 8/20 9/21
f 6/22 11/23 8/24
f 6/25 9/26 7/27
f 11/28 19/29 8/30
f 7/31 9/32 17/33
f 7/34 17/35 16/36
f 11/37 16/38 19/39
f 16/40 17/41 19/42
f 5/43 10/44 6/45
f 6/46 10/47 11/48
f 1/49 12/50 13/51
f 1/52 13/53 4/54
f 12/55 3/56 14/57
f 12/58 14/59 13/60
f 15/61 7/62 16/63
f 15/64 16/65 20/66
f 4/67 13/68 18/69
f 18/70 13/71 14/72
f 10/73 20/74 11/75
f 11/76 20/77 16/78
f 2/79 21/80 22/81
f 2/82 18/83 21/84
f 2/85 22/86 3/87
f 18/88 27/89 21/90
f 3/91 22/92 26/93
f 3/94 26/95 14/96
f 18/97 14/98 27/99
f 14/100 26/101 27/102
f 5/103 15/104 23/105
f 5/106 23/107 24/108
f 15/109 25/110 23/111
f 5/112 24/113 10/114
f 15/115 20/116 25/117
f 20/118 28/119 25/120
f 10/121 24/122 28/123
f 10/124 28/125 20/126
f 22/127 21/128 23/129
f 23/130 25/131 22/132
f 24/133 23/134 21/135
f 21/136 27/137 24/138
f 25/139 26/140 22/141
f 25/142 28/143 26/144
f 27/145 28/146 24/147
f 27/148 26/149 28/150
f 29/151 33/152 8/153
f 33/154 9/155 8/156
f 29/157 8/158 34/159
f 34/160 8/161 19/162
f 33/163 17/164 9/165
f 33/166 44/167 17/168
f 37/169 41/170 42/171
f 32/172 35/173 36/174
f 29/175 30/176 31/177
f 29/178 32/179 30/180
f 29/181 31/182 33/183
f 29/184 34/185 32/186
f 33/187 31/188 36/189
f 34/190 35/191 32/192
f 36/193 35/194 37/195
f 33/196 36/197 37/198
f 33/199 37/200 38/201
f 33/202 38/203 39/204
f 37/205 42/206 38/207
f 33/208 39/209 43/210
f 34/211 40/212 35/213
f 34/214 41/215 40/216
f 34/217 42/218 41/219
f 34/220 44/221 42/222
f 33/223 43/224 44/225
f 44/226 43/227 42/228
f 34/229 19/230 17/231
f 34/232 17/233 44/234
f 45/235 38/236 42/237
f 45/238 42/239 47/240
f 45/241 46/242 38/243
f 46/244 39/245 38/246
f 45/247 47/248 46/249
f 46/250 47/251 48/252
f 46/253 48/254 39/255
f 48/256 43/257 39/258
f 47/259 42/260 43/261
f 47/262 43/263 48/264
f 49/265 30/266 32/267
f 49/268 32/269 51/270
f 49/271 50/272 30/273
f 50/274 31/275 30/276
f 49/277 51/278 50/279
f 50/280 51/281 52/282
f 50/283 52/284 31/285
f 52/286 36/287 31/288
f 51/289 32/290 36/291
f 51/292 36/293 52/294
f 53/295 35/296 40/297
f 53/298 40/299 55/300
f 53/301 54/302 35/303
f 54/304 37/305 35/306
f 53/307 55/308 54/309
f 54/310 55/311 56/312
f 54/313 56/314 37/315
f 56/316 41/317 37/318
f 55/319 40/320 41/321
f 55/322 41/323 56/324
