v -0.0625 -0.5 0.0625
v 0.0625 -0.5 0.0625
v -0.0625 -0.125 0.0625
v -0.0625 -0.125 -0.0625
v -0.0625 -0.5 -0.0625
v 0.0625 -0.5 -0.0625
v 0.0625 -0.125 -0.0625
v 0.0625 -0.125 0.0625
v -0.125 -0.125 0.125
v -0.125 0.125 0.125
v -0.125 0.125 -0.125
v 0.125 -0.125 0.125
v 0.125 0.125 0.125
v -0.125 -0.125 -0.125
v 0.125 -0.125 -0.125
v 0.125 0.125 -0.125
vt 0.0 0.0
vt 0.125 0.0
vt 0.0 0.375
vt 0.125 0.0
vt 0.125 0.375
vt 0.0 0.375
vt 0.125 0.125
vt 0.5 0.125
vt 0.5 0.0
vt 0.125 0.125
vt 0.5 0.0
vt 0.125 0.0
vt 0.125 0.25
vt 0.125 0.125
vt 0.25 0.125
vt 0.125 0.25
vt 0.25 0.125
vt 0.25 0.25
vt 0.125 0.25
vt 0.125 0.625
vt 0.25 0.625
vt 0.125 0.25
vt 0.25 0.625
vt 0.25 0.25
vt 0.25 0.25
vt 0.25 0.125
vt 0.625 0.25
vt 0.25 0.125
vt 0.625 0.125
vt 0.625 0.25
vt 0.25 0.5
vt 0.3125 0.3125
vt 0.3125 0.4375
vt 0.25 0.5
vt 0.3125 0.4375
vt 0.5 0.5
vt 0.25 0.5
vt 0.25 0.25
vt 0.3125 0.3125
vt 0.5 0.5
vt 0.3125 0.4375
vt 0.4375 0.4375
vt 0.25 0.25
vt 0.4375 0.3125
vt 0.3125 0.3125
vt 0.25 0.25
vt 0.5 0.25
vt 0.4375 0.3125
vt 0.5 0.5
vt 0.4375 0.4375
vt 0.5 0.25
vt 0.5 0.25
vt 0.4375 0.4375
vt 0.4375 0.3125
vt 0.25 0.75
vt 0.5 0.75
vt 0.5 0.5
vt 0.25 0.75
vt 0.5 0.5
vt 0.25 0.5
vt 0.5 0.25
vt 0.75 0.5
vt 0.5 0.5
vt 0.5 0.25
vt 0.75 0.25
vt 0.75 0.5
vt 0.5 0.75
vt 0.75 0.75
vt 0.5 0.5
vt 0.5 0.5
vt 0.75 0.75
vt 0.75 0.5
vt 0.0 0.625
vt 0.0 0.875
vt 0.25 0.625
vt 0.0 0.875
vt 0.25 0.875
vt 0.25 0.625
vt 0.625 0.25
vt 0.625 0.0
vt 0.875 0.25
vt 0.875 0.25
vt 0.625 0.0
vt 0.875 0.0
f 1/1 2/2 3/3
f 2/4 8/5 3/6
f 1/7 3/8 4/9
f 1/10 4/11 5/12
f 1/13 5/14 6/15
f 1/16 6/17 2/18
f 5/19 4/20 7/21
f 5/22 7/23 6/24
f 2/25 6/26 8/27
f 6/28 7/29 8/30
f 9/31 4/32 3/33
f 9/34 3/35 12/36
f 9/37 14/38 4/39
f 12/40 3/41 8/42
f 14/43 7/44 4/45
f 14/46 15/47 7/48
f 12/49 8/50 15/51
f 15/52 8/53 7/54
f 9/55 10/56 11/57
f 9/58 11/59 14/60
f 9/61 13/62 10/63
f 9/64 12/65 13/66
f 10/67 13/68 11/69
f 11/70 13/71 16/72
f 14/73 11/74 15/75
f 11/76 16/77 15/78
f 12/79 15/80 13/81
f 13/82 15/83 16/84
