v 0.0625 0.0 -0.0625
v -0.0625 0.0 0.0625
v 0.0625 0.0 0.0625
v -0.0625 0.0 -0.0625
v -0.0625 -0.5 -0.0625
v 0.0625 -0.5 0.0625
v -0.0625 -0.5 0.0625
v 0.0625 -0.5 -0.0625
vt 0.125 0.0
vt 0.0 0.125
vt 0.125 0.125
vt 0.0 0.125
vt 0.125 0.0
vt 0.0 0.0
vt 0.0 0.125
vt 0.125 0.25
vt 0.0 0.25
vt 0.125 0.25
vt 0.0 0.125
vt 0.125 0.125
vt 0.125 0.5
vt 0.25 0.0
vt 0.25 0.5
vt 0.25 0.0
vt 0.125 0.5
vt 0.125 0.0
vt 0.25 0.125
vt 0.75 0.0
vt 0.75 0.125
vt 0.75 0.0
vt 0.25 0.125
vt 0.25 0.0
vt 0.0 0.25
vt 0.125 0.75
vt 0.125 0.25
vt 0.125 0.75
vt 0.0 0.25
vt 0.0 0.75
vt 0.25 0.125
vt 0.75 0.25
vt 0.75 0.125
vt 0.75 0.25
vt 0.25 0.125
vt 0.25 0.25
f 1/1 2/2 3/3
f 2/4 1/5 4/6
f 5/7 6/8 7/9
f 6/10 5/11 8/12
f 2/13 6/14 3/15
f 6/16 2/17 7/18
f 6/19 1/20 3/21
f 1/22 6/23 8/24
f 5/25 1/26 8/27
f 1/28 5/29 4/30
f 5/31 2/32 4/33
f 2/34 5/35 7/36
